# xmcd CD database file
#
# Track frame offsets:
#	150
#	4980
#	29010
#	51564
#	72578
#	90368
#	107063
#	125850
#	130525
#	156010
#	187990
#	210668
#	220488
#
# Disc length: 3151 seconds
#
# Revision: 5
# Processed by: cddbd v1.5.2PL0 Copyright (c) Steve Scherf et al.
# Submitted via: CDex 1.70beta3
#
DISCID=c10c4d0d
DTITLE=Char - flashback memories
DYEAR=1991
DGENRE=J-Rock
TTITLE0=RUSSIANDRIX I
TTITLE1=XQZ me
TTITLE2=ROOM NO.7
TTITLE3=BLACK SHOES
TTITLE4=DAYS WENT BY
TTITLE5=LOST SCAT
TTITLE6=2918
TTITLE7=RUSSIANDRIX II
TTITLE8=FLASHBACK MEMORIES
TTITLE9=FRIDAY MORNING
TTITLE10=ALL AROUND ME
TTITLE11=RUSSIANDRIX III
TTITLE12=FEEL THE GROOVE
EXTD=YEAR: 1991
EXTT0=
EXTT1=
EXTT2=
EXTT3=
EXTT4=
EXTT5=
EXTT6=
EXTT7=
EXTT8=
EXTT9=
EXTT10=
EXTT11=
EXTT12=
PLAYORDER=
